<?xml version="1.0" encoding="utf-8"?>
<!-- Generator: Adobe Illustrator 24.0.0, SVG Export Plug-In . SVG Version: 6.00 Build 0)  -->
<svg version="1.1" id="Calque_1" xmlns="http://www.w3.org/2000/svg" xmlns:xlink="http://www.w3.org/1999/xlink" x="0px" y="0px"
	 viewBox="0 0 308.2 90.5" style="enable-background:new 0 0 308.2 90.5;" xml:space="preserve">
<style type="text/css">
	.st0{fill:#A6DFF2;}
	.st1{fill:#1A79DB;}
	.st2{display:none;}
	.st3{display:inline;fill:#3EB5E1;}
	.st4{display:inline;fill:#A6DFF2;}
</style>
<g>
	<polygon class="st0" points="154.1,85.5 5,85.5 5,45.2 0,45.2 0,85.5 0,90.5 5,90.5 154.1,90.5 	"/>
	<polygon class="st1" points="154.1,5 303.2,5 303.2,45.2 308.2,45.2 308.2,5 308.2,0 303.2,0 154.1,0 	"/>
	<g>
		<path class="st1" d="M58.2,61.1v9.4h-39V20h38.1v9.4H30.8v10.9h23.4v9.1H30.8v11.7C30.8,61.1,58.2,61.1,58.2,61.1z"/>
		<path class="st1" d="M100.9,22.3c3.3,1.5,5.8,3.6,7.6,6.3c1.8,2.7,2.7,6,2.7,9.7s-0.9,6.9-2.7,9.7c-1.8,2.8-4.3,4.9-7.6,6.3
			c-3.3,1.5-7.2,2.2-11.6,2.2H79.1v13.9H67.5V20h21.8C93.8,20,97.6,20.8,100.9,22.3z M96.6,44.8c1.8-1.5,2.7-3.7,2.7-6.4
			c0-2.8-0.9-5-2.7-6.5c-1.8-1.5-4.5-2.3-8-2.3h-9.5V47h9.5C92.2,47,94.8,46.3,96.6,44.8z"/>
		<path class="st1" d="M119.5,20h11.7v50.4h-11.7V20z"/>
		<path class="st0" d="M143,69.4c-2.9-1.3-5.2-3.1-7-5.4l6.5-7.8c2.7,3.7,5.9,5.5,9.4,5.5c4.8,0,7.1-2.8,7.1-8.4v-24h-17.7V20h29.3
			v32.7c0,6.2-1.5,10.8-4.6,13.9s-7.6,4.6-13.5,4.6C149,71.3,145.8,70.7,143,69.4z"/>
		<path class="st0" d="M192.3,67.9c-4.2-2.3-7.5-5.4-9.9-9.3c-2.4-4-3.6-8.4-3.6-13.4c0-4.9,1.2-9.4,3.6-13.4s5.7-7.1,9.9-9.3
			c4.2-2.3,8.9-3.4,14.1-3.4c5.2,0,9.9,1.1,14.1,3.4c4.2,2.3,7.5,5.4,9.9,9.3c2.4,4,3.6,8.4,3.6,13.4c0,4.9-1.2,9.4-3.6,13.4
			c-2.4,4-5.7,7.1-9.9,9.3c-4.2,2.3-8.9,3.4-14.1,3.4C201.2,71.3,196.5,70.2,192.3,67.9z M214.5,59.3c2.4-1.4,4.3-3.3,5.7-5.7
			s2.1-5.2,2.1-8.4c0-3.1-0.7-5.9-2.1-8.4c-1.4-2.4-3.3-4.4-5.7-5.7c-2.4-1.4-5.1-2.1-8.1-2.1s-5.7,0.7-8.1,2.1
			c-2.4,1.4-4.3,3.3-5.7,5.7s-2.1,5.2-2.1,8.4c0,3.1,0.7,5.9,2.1,8.4c1.4,2.4,3.3,4.4,5.7,5.7c2.4,1.4,5.1,2.1,8.1,2.1
			C209.4,61.4,212.1,60.7,214.5,59.3z"/>
		<path class="st0" d="M286.6,48.8c1.6,2.1,2.4,4.8,2.4,7.9c0,4.4-1.7,7.8-5.1,10.2s-8.4,3.6-15,3.6h-26.1V20h24.6
			c6.1,0,10.9,1.2,14.1,3.5c3.3,2.4,4.9,5.5,4.9,9.6c0,2.4-0.6,4.6-1.8,6.6c-1.2,1.9-2.8,3.4-4.9,4.5
			C282.7,45.1,284.9,46.7,286.6,48.8z M254.4,28.8v11.9H266c2.9,0,5.1-0.5,6.6-1.5s2.2-2.5,2.2-4.5s-0.7-3.4-2.2-4.4
			s-3.7-1.5-6.6-1.5C266,28.8,254.4,28.8,254.4,28.8z M274.9,60.1c1.6-1,2.3-2.6,2.3-4.7c0-4.2-3.1-6.3-9.3-6.3h-13.6v12.5H268
			C271.1,61.7,273.4,61.1,274.9,60.1z"/>
	</g>
</g>
<g class="st2">
	
		<text transform="matrix(1 0 0 1 369.952 70.438)" style="display:inline;fill:#1D1D1B; font-family:'Montserrat-Bold'; font-size:72px;">EpiJob</text>
	<rect x="254.4" y="-104.4" class="st3" width="58.6" height="37.6"/>
	<rect x="331.4" y="-104.4" class="st4" width="58.6" height="37.6"/>
</g>
</svg>
